<svg width="15" height="14" viewBox="0 0 14.5 13.75" fill="none" xmlns="http://www.w3.org/2000/svg">
<path fill-rule="evenodd" clip-rule="evenodd" d="M0 4.5C0 3.67157 0.671572 3 1.5 3H13C13.8284 3 14.5 3.67157 14.5 4.5V5.88889C14.5 6.4441 14.1984 6.92886 13.75 7.18822V11.5C13.75 12.7426 12.7426 13.75 11.5 13.75H3C1.75736 13.75 0.75 12.7426 0.75 11.5V7.18822C0.301649 6.92886 0 6.4441 0 5.88889V4.5ZM2.25 7.38889V11.5C2.25 11.9142 2.58579 12.25 3 12.25H6.5V7.38889H2.25ZM6.5 5.88889L1.5 5.88889V4.5H6.5V5.88889ZM8 7.38889V12.25H11.5C11.9142 12.25 12.25 11.9142 12.25 11.5V7.38889H8ZM13 5.88889H8V4.5H13V5.88889Z" fill="#006280"/>
<path fill-rule="evenodd" clip-rule="evenodd" d="M4.4656 1.5C4.07038 1.5 3.75 1.82038 3.75 2.2156V2.25C3.75 2.66421 4.08579 3 4.5 3H5.84851L5.06103 1.81868C4.92831 1.61959 4.70487 1.5 4.4656 1.5ZM7.24989 2.39792L6.30914 0.986675C5.89822 0.370259 5.20642 0 4.4656 0C3.24196 0 2.25 0.991958 2.25 2.2156V2.25C2.25 3.49264 3.25736 4.5 4.5 4.5H10C11.2426 4.5 12.25 3.49264 12.25 2.25V2.21565C12.25 0.991978 11.258 0 10.0344 0C9.29358 0 8.60181 0.370207 8.19087 0.986557L7.24989 2.39792ZM8.65129 3L9.43892 1.81865C9.57165 1.61958 9.79509 1.5 10.0344 1.5C10.4296 1.5 10.75 1.82041 10.75 2.21565V2.25C10.75 2.66421 10.4142 3 10 3H8.65129Z" fill="#006280"/>
</svg>
