<svg width="15" height="13" viewBox="0 0 14.5 13" fill="none" xmlns="http://www.w3.org/2000/svg">
<path fill-rule="evenodd" clip-rule="evenodd" d="M2.8641 0.656784C3.19621 0.241657 3.699 0 4.23063 0H10.2694C10.801 0 11.3038 0.241657 11.6359 0.656784L14.184 3.84187C14.3885 4.09759 14.5 4.41533 14.5 4.74282C14.5 5.0885 14.3758 5.42268 14.1501 5.6845L8.23129 12.5504C7.98518 12.8358 7.62693 13 7.25 13C6.87307 13 6.51482 12.8358 6.26871 12.5504L0.349868 5.6845C0.12416 5.42268 0 5.0885 0 4.74282C0 4.41533 0.111456 4.09759 0.316035 3.84187L2.8641 0.656784ZM4.23063 1.5C4.15468 1.5 4.08285 1.53452 4.03541 1.59383L1.51732 4.74144L7.25 11.3913L12.9827 4.74144L10.4646 1.59383C10.4171 1.53452 10.3453 1.5 10.2694 1.5H4.23063Z" fill="#006280"/>
<path fill-rule="evenodd" clip-rule="evenodd" d="M6.92642 1.5C6.82418 1.5 6.73224 1.56226 6.69429 1.65719L5.51787 4.59969C5.50606 4.62921 5.5 4.6607 5.5 4.6925V4.83243C5.5 4.86016 5.50462 4.88771 5.51366 4.91393L7.25 9.94932L8.98634 4.91393C8.99538 4.8877 9 4.86016 9 4.83243V4.69267C9 4.66085 8.99393 4.62932 8.9821 4.59978L7.80446 1.65711C7.76648 1.56222 7.67457 1.5 7.57236 1.5H6.92642ZM5.30148 1.10034C5.56717 0.435793 6.21073 0 6.92642 0H7.57236C8.28783 0 8.93125 0.435535 9.19708 1.09979L10.3747 4.04246C10.4575 4.24925 10.5 4.46994 10.5 4.69267V4.83243C10.5 5.02658 10.4677 5.21937 10.4044 5.40291L7.95903 12.4945C7.85472 12.797 7.56998 13 7.25 13C6.93002 13 6.64528 12.797 6.54097 12.4945L4.0956 5.40291C4.03231 5.21937 4 5.02658 4 4.83243V4.6925C4 4.46996 4.04244 4.24947 4.12506 4.04284L5.30148 1.10034Z" fill="#006280"/>
<path fill-rule="evenodd" clip-rule="evenodd" d="M0 4.75C0 4.33579 0.335786 4 0.75 4H13.75C14.1642 4 14.5 4.33579 14.5 4.75C14.5 5.16421 14.1642 5.5 13.75 5.5H0.75C0.335786 5.5 0 5.16421 0 4.75Z" fill="#006280"/>
</svg>
