<svg viewBox="0 0 20 20" fill="none" xmlns="http://www.w3.org/2000/svg">
<path fill-rule="evenodd" clip-rule="evenodd" d="M7.11441 1.06276C8.77719 -0.354254 11.2228 -0.354254 12.8856 1.06276C13.2778 1.39701 13.7655 1.599 14.2792 1.63999C16.4569 1.81378 18.1862 3.54309 18.36 5.72084C18.401 6.23453 18.603 6.72219 18.9372 7.1144C20.3543 8.77719 20.3543 11.2228 18.9372 12.8856C18.603 13.2778 18.401 13.7655 18.36 14.2792C18.1862 16.4569 16.4569 18.1862 14.2792 18.36C13.7655 18.401 13.2778 18.603 12.8856 18.9372C11.2228 20.3543 8.77719 20.3543 7.1144 18.9372C6.72219 18.603 6.23453 18.401 5.72084 18.36C3.54309 18.1862 1.81378 16.4569 1.63999 14.2792C1.599 13.7655 1.39701 13.2778 1.06276 12.8856C-0.354254 11.2228 -0.354254 8.77719 1.06276 7.1144C1.39701 6.72219 1.599 6.23453 1.63999 5.72084C1.81378 3.54309 3.54309 1.81378 5.72084 1.63999C6.23453 1.599 6.72219 1.39701 7.11441 1.06276ZM11.5884 2.58499C10.6731 1.805 9.32691 1.805 8.41164 2.58499C7.6991 3.19222 6.81316 3.55919 5.87994 3.63366C4.68121 3.72932 3.72932 4.68121 3.63366 5.87994C3.55919 6.81316 3.19222 7.6991 2.58499 8.41164C1.805 9.32691 1.805 10.6731 2.58499 11.5884C3.19222 12.3009 3.55919 13.1868 3.63366 14.1201C3.72932 15.3188 4.68121 16.2707 5.87994 16.3663C6.81316 16.4408 7.6991 16.8078 8.41164 17.415C9.32691 18.195 10.6731 18.195 11.5884 17.415C12.3009 16.8078 13.1868 16.4408 14.1201 16.3663C15.3188 16.2707 16.2707 15.3188 16.3663 14.1201C16.4408 13.1868 16.8078 12.3009 17.415 11.5884C18.195 10.6731 18.195 9.32691 17.415 8.41164C16.8078 7.6991 16.4408 6.81316 16.3663 5.87994C16.2707 4.68121 15.3188 3.72932 14.1201 3.63366C13.1868 3.55919 12.3009 3.19222 11.5884 2.58499Z" fill="#1A1919"/>
<path fill-rule="evenodd" clip-rule="evenodd" d="M12.7497 5.23686C13.228 5.51301 13.3918 6.1246 13.1157 6.60289L8.6157 14.3971C8.33956 14.8754 7.72797 15.0393 7.24968 14.7631C6.77139 14.487 6.60751 13.8754 6.88365 13.3971L11.3837 5.60289C11.6598 5.1246 12.2714 4.96072 12.7497 5.23686Z" fill="#1A1919"/>
<path d="M9.24951 6.35272C9.24951 7.04308 8.68987 7.60272 7.99951 7.60272C7.30916 7.60272 6.74951 7.04308 6.74951 6.35272C6.74951 5.66237 7.30916 5.10272 7.99951 5.10272C8.68987 5.10272 9.24951 5.66237 9.24951 6.35272Z" fill="#1A1919"/>
<path d="M13.25 13.6473C13.25 14.3376 12.6904 14.8973 12 14.8973C11.3096 14.8973 10.75 14.3376 10.75 13.6473C10.75 12.9569 11.3096 12.3973 12 12.3973C12.6904 12.3973 13.25 12.9569 13.25 13.6473Z" fill="#1A1919"/>
</svg>
