<svg viewBox="0 0 83.8881 64" fill="none" xmlns="http://www.w3.org/2000/svg">
<g id="Career Networking">
<path d="M0 43.984V33.528C0 26.872 5.4 21.472 12.056 21.472C18.712 21.472 24.112 26.872 24.112 33.528C24.112 40.184 18.712 45.584 12.056 45.584H1.6C0.72 45.584 0 44.864 0 43.984Z" fill="#A39DBF" fill-opacity="0.3"/>
<path d="M11.7759 18.88C15.4431 18.88 18.4159 15.9072 18.4159 12.24C18.4159 8.57283 15.4431 5.6 11.7759 5.6C8.10877 5.6 5.13594 8.57283 5.13594 12.24C5.13594 15.9072 8.10877 18.88 11.7759 18.88Z" fill="#A39DBF" fill-opacity="0.3"/>
<path d="M54.2881 39.7199C54.2881 31.5519 60.9201 24.9199 69.0881 24.9199C77.2561 24.9199 83.8881 31.5519 83.8881 39.7199V52.8559C83.8881 53.7759 83.1441 54.5199 82.2241 54.5199H69.0881C60.9201 54.5199 54.2881 47.8879 54.2881 39.7199Z" fill="#3C3461"/>
<path d="M40.6881 23.2C51.9441 23.2 61.0881 32.344 61.0881 43.6C61.0881 54.856 51.9441 64 40.6881 64H21.8881C21.0081 64 20.2881 63.28 20.2881 62.4V43.6C20.2881 32.344 29.4321 23.2 40.6881 23.2Z" fill="#8A85B2"/>
<path d="M40.2881 20C45.8109 20 50.2881 15.5228 50.2881 10C50.2881 4.47715 45.8109 0 40.2881 0C34.7652 0 30.2881 4.47715 30.2881 10C30.2881 15.5228 34.7652 20 40.2881 20Z" fill="#8A85B2"/>
<path d="M69.4321 21.744C73.9343 21.744 77.5841 18.0943 77.5841 13.592C77.5841 9.08981 73.9343 5.44004 69.4321 5.44004C64.9299 5.44004 61.2801 9.08981 61.2801 13.592C61.2801 18.0943 64.9299 21.744 69.4321 21.744Z" fill="#3C3461"/>
<path d="M38.4241 35.736V35.032C38.4241 34.648 38.0961 34.328 37.6961 34.328H35.5201C35.1201 34.328 34.7921 34.648 34.7921 35.032V35.736H32.0801L29.9361 29.6H17.6241L15.4801 35.736H13.0001V35.032C13.0001 34.648 12.6801 34.328 12.2801 34.328H10.0961C9.69606 34.328 9.36806 34.648 9.36806 35.032V35.736H7.75206C7.04006 35.736 6.46406 36.312 6.46406 37.024V52.36C6.46406 55.248 8.88006 57.592 11.8561 57.592H35.9361C38.9041 57.592 41.3201 55.256 41.3201 52.36V37.024C41.3201 36.312 40.7441 35.736 40.0321 35.736H38.4161H38.4241ZM18.0961 35.736L19.4001 32H28.1681L29.4721 35.736H18.0961Z" fill="#DF2D91"/>
<path d="M41.3281 37.032V52.368C41.3281 55.264 38.9121 57.6 35.9441 57.6H20.2881V43.6C20.2881 40.816 20.8481 38.16 21.8641 35.736H29.4641L28.1681 32H23.9121C24.4961 31.152 25.1441 30.344 25.8561 29.6H29.9361L32.0801 35.736H34.7921V35.032C34.7921 34.648 35.1201 34.328 35.5201 34.328H37.6961C38.0961 34.328 38.4241 34.648 38.4241 35.032V35.736H40.0401C40.7521 35.736 41.3281 36.312 41.3281 37.032Z" fill="#3C3461"/>
<path d="M51.8881 38.4C51.8881 37.9582 51.5299 37.6 51.0881 37.6C50.6463 37.6 50.2881 37.9582 50.2881 38.4V42.4H46.2881C45.8463 42.4 45.4881 42.7582 45.4881 43.2C45.4881 43.6418 45.8463 44 46.2881 44H50.2881V48C50.2881 48.4418 50.6463 48.8 51.0881 48.8C51.5299 48.8 51.8881 48.4418 51.8881 48V44H55.8881C56.3299 44 56.6881 43.6418 56.6881 43.2C56.6881 42.7582 56.3299 42.4 55.8881 42.4H51.8881V38.4Z" fill="#706F6E"/>
</g>
</svg>
