<svg viewBox="0 0 24 24" fill="none" xmlns="http://www.w3.org/2000/svg">
<path fill-rule="evenodd" clip-rule="evenodd" d="M9.49994 17V17.5C9.49994 18.8807 10.6192 20 11.9999 20C13.3806 20 14.4999 18.8807 14.4999 17.5V17H16.4999V17.5C16.4999 19.9853 14.4852 22 11.9999 22C9.51465 22 7.49994 19.9853 7.49994 17.5V17H9.49994Z" fill="#ffffff"/>
<path fill-rule="evenodd" clip-rule="evenodd" d="M5.19265 6.97916C6.14212 4.0141 8.8916 2 11.9999 2C15.1083 2 17.8578 4.01411 18.8072 6.97916L21.0925 14.1158C21.3157 14.8129 21.3253 15.6301 20.9656 16.3716C20.4294 17.4769 19.2968 18 18.228 18H5.77184C4.70311 18 3.57049 17.4769 3.03429 16.3716C2.67461 15.6301 2.68414 14.8129 2.90737 14.1158L5.19265 6.97916ZM11.9999 4C9.7653 4 7.7829 5.44828 7.09737 7.58909L4.8121 14.7257C4.71632 15.0248 4.73703 15.2993 4.83373 15.4987C4.96955 15.7786 5.30555 16 5.77184 16H18.228C18.6943 16 19.0303 15.7786 19.1661 15.4987C19.2628 15.2993 19.2835 15.0248 19.1878 14.7257L16.9025 7.58909C16.217 5.44828 14.2346 4 11.9999 4Z" fill="#ffffff"/>
</svg>
