<svg viewBox="0 0 20 20" fill="none" xmlns="http://www.w3.org/2000/svg">
<g id="Vector">
<path fill-rule="evenodd" clip-rule="evenodd" d="M4 0H16C18.2091 0 20 1.79086 20 4V16C20 18.2091 18.2091 20 16 20H4C1.79086 20 0 18.2091 0 16V4C0 1.79086 1.79086 0 4 0ZM4 2C2.89543 2 2 2.89543 2 4V16C2 17.1046 2.89543 18 4 18H16C17.1046 18 18 17.1046 18 16V4C18 2.89543 17.1046 2 16 2H4Z" fill="#5C5B5A"/>
<path fill-rule="evenodd" clip-rule="evenodd" d="M5.75 7.12207C6.23325 7.12207 6.625 7.51382 6.625 7.99707V14.9971C6.625 15.4803 6.23325 15.8721 5.75 15.8721C5.26675 15.8721 4.875 15.4803 4.875 14.9971V7.99707C4.875 7.51382 5.26675 7.12207 5.75 7.12207Z" fill="#5C5B5A"/>
<path fill-rule="evenodd" clip-rule="evenodd" d="M10 10.1221C10.4832 10.1221 10.875 10.5138 10.875 10.9971V14.9971C10.875 15.4803 10.4832 15.8721 10 15.8721C9.51675 15.8721 9.125 15.4803 9.125 14.9971V10.9971C9.125 10.5138 9.51675 10.1221 10 10.1221Z" fill="#5C5B5A"/>
<path fill-rule="evenodd" clip-rule="evenodd" d="M14.25 4.12207C14.7332 4.12207 15.125 4.51382 15.125 4.99707V14.9971C15.125 15.4803 14.7332 15.8721 14.25 15.8721C13.7668 15.8721 13.375 15.4803 13.375 14.9971V4.99707C13.375 4.51382 13.7668 4.12207 14.25 4.12207Z" fill="#5C5B5A"/>
</g>
</svg>
