<svg viewBox="0 0 20 20" fill="none" xmlns="http://www.w3.org/2000/svg">
<path id="Vector" d="M11.9222 0.70038C10.8091 -0.233462 9.19092 -0.233458 8.07781 0.700381L1.43707 6.27158C0.526409 7.03558 0 8.16647 0 9.35885V16.9842C0 18.6498 1.34315 20 3 20H6C7.10457 20 8 19.0998 8 17.9894V14.5722C8 13.4618 8.89543 12.5616 10 12.5616C11.1046 12.5616 12 13.4618 12 14.5722V17.9894C12 19.0998 12.8954 20 14 20H17C18.6569 20 20 18.6498 20 16.9842V9.35885C20 8.16647 19.4736 7.03558 18.5629 6.27158L11.9222 0.70038Z" fill="#1A1919"/>
</svg>
